<?xml version="1.0" encoding="UTF-8"?>
<svg width="61px" height="54px" viewBox="0 0 61 54" version="1.1" xmlns="http://www.w3.org/2000/svg" xmlns:xlink="http://www.w3.org/1999/xlink">
    <title>Group</title>
    <g id="Page-1" stroke="none" stroke-width="1" fill="none" fill-rule="evenodd">
        <g id="Group" transform="translate(0.551962, 0.857886)" fill="#FFFFFF" fill-rule="nonzero">
            <path d="M30.719863,32.8341919 L21.7912915,32.8341919 L37.4163201,5.74156327 C38.4207773,3.98379186 38.0580344,1.58419186 36.1886058,0.523963285 C34.235463,-0.592151004 32.0312344,0.272820426 31.0826058,2.030649 L29.5200915,4.56967758 L27.9854629,2.030649 C27.0368344,0.272820426 24.8326058,-0.647922433 22.8794629,0.523963285 C20.9821487,1.61213472 20.6752344,3.98379186 21.6796915,5.74156327 L25.3348344,11.9636776 L13.2533486,32.8341919 L3.87832001,32.8341919 C1.86940572,32.8341919 0,34.3129919 0,36.5172205 C0,38.6935633 1.86940572,40.1723805 3.87832001,40.1723805 L36.1048915,40.1723805 C36.9140344,36.907849 35.1841487,32.8341919 30.719863,32.8341919 Z" id="Path"></path>
            <path d="M55.1897487,32.8341919 L45.8426058,32.8341919 L35.602663,15.1723633 C32.5614058,17.4045347 32.087063,23.8219633 34.3750058,27.7003062 L47.2935201,50.0217119 C48.2700916,51.7795062 50.4464344,52.6723633 52.399463,51.5563062 C54.3246058,50.4681405 54.659463,48.1243919 53.6548916,46.3386776 L50.0558058,40.1723805 L55.1897487,40.1723805 C57.1988917,40.1723805 59.0680346,38.6935633 59.0680346,36.5172205 C59.0680346,34.3129919 57.1988917,32.8341919 55.1897487,32.8341919 Z" id="Path"></path>
            <path d="M7.50557717,42.823049 L5.44083431,46.3386776 C4.43637715,48.1243919 4.74329144,50.4402376 6.64060574,51.5563062 C8.62163431,52.7003062 10.7979772,51.7795062 11.7745486,50.0217119 L14.7600344,44.971489 C14.0624915,43.6601062 11.2164915,41.7906833 7.50557717,42.823049 Z" id="Path"></path>
        </g>
    </g>
</svg>