<?xml version="1.0" encoding="utf-8"?>
<!-- Generator: Adobe Illustrator 25.4.1, SVG Export Plug-In . SVG Version: 6.00 Build 0)  -->
<svg version="1.1" id="Artwork" xmlns="http://www.w3.org/2000/svg" xmlns:xlink="http://www.w3.org/1999/xlink" x="0px" y="0px"
	 width="469.234px" height="83.47px" viewBox="0 0 469.234 83.47" style="enable-background:new 0 0 469.234 83.47;"
	 xml:space="preserve">
<style type="text/css">
	.st0{fill:#C6E1E6;}	
</style>
<g>
	<g>
		<path class="st0" d="M75.611,17.86H88.18l10.635,46.89h0.22l12.305-46.89h10.811l12.305,46.89h0.22l10.679-46.89h12.524
			l-16.919,63.413h-11.733l-12.349-44.296h-0.264l-12.349,44.296H92.53L75.611,17.86z"/>
		<path class="st0" d="M160.229,17.86h12.568l10.635,46.89h0.22l12.305-46.89h10.811l12.305,46.89h0.22l10.679-46.89h12.523
			l-16.918,63.413h-11.734l-12.349-44.296h-0.264l-12.349,44.296h-11.733L160.229,17.86z"/>
		<path class="st0" d="M248.538,17.86h23.599c18.94,0,30.146,11.382,30.146,31.421v0.088c0,20.127-11.162,31.904-30.146,31.904
			h-23.599V17.86z M270.774,71.165c12.393,0,19.16-7.602,19.16-21.752v-0.088c0-13.799-6.943-21.357-19.16-21.357h-10.107v43.198
			H270.774z"/>
		<path class="st0" d="M307.843,49.545v-0.044c0-20.347,11.602-32.739,29.927-32.739c14.897,0,25.752,9.36,27.246,22.456
			l0.044,0.439h-11.865l-0.176-0.791c-1.714-7.119-7.119-11.689-15.249-11.689c-10.723,0-17.578,8.569-17.578,22.324v0.044
			c0,13.799,6.899,22.412,17.578,22.412c7.91,0,13.447-4.35,15.381-12.041l0.088-0.439h11.865l-0.088,0.439
			c-1.45,13.227-12.349,22.456-27.246,22.456C319.4,82.371,307.843,69.891,307.843,49.545z"/>
		<path class="st0" d="M371.367,73.011l22.368-21.489c8.262-7.954,10.02-11.118,10.02-15.688v-0.088
			c0-5.493-4.175-9.404-10.107-9.404c-6.768,0-11.514,4.526-11.646,10.503l-0.044,0.352h-11.294v-0.352
			c0-11.733,9.844-20.083,22.896-20.083c13.008,0,22.017,7.69,22.017,18.281v0.088c0,7.559-3.56,12.568-14.634,23.071
			l-13.667,12.788v0.483h29.268v9.8h-45.176V73.011z"/>
		<path class="st0" d="M423.059,73.011l22.368-21.489c8.262-7.954,10.02-11.118,10.02-15.688v-0.088
			c0-5.493-4.175-9.404-10.107-9.404c-6.768,0-11.514,4.526-11.646,10.503l-0.044,0.352h-11.294v-0.352
			c0-11.733,9.844-20.083,22.895-20.083c13.008,0,22.017,7.69,22.017,18.281v0.088c0,7.559-3.56,12.568-14.634,23.071
			l-13.667,12.788v0.483h29.268v9.8h-45.176V73.011z"/>
	</g>
	<g>
		<path class="st0" d="M49.89,19.925c-6.79-0.502-12.55,3.792-15.764,3.792c-3.26,0-8.287-3.684-13.618-3.583
			C13.51,20.237,7.059,24.207,3.45,30.474c-7.27,12.618-1.856,31.316,5.225,41.555c3.464,5.003,7.595,10.641,13.021,10.436
			c5.223-0.206,7.199-3.378,13.512-3.378c6.309,0,8.089,3.378,13.612,3.277c5.622-0.104,9.183-5.107,12.622-10.138
			c3.979-5.807,5.614-11.43,5.711-11.727c-0.124-0.047-10.958-4.204-11.067-16.686c-0.098-10.436,8.518-15.452,8.91-15.693
			C60.105,20.917,52.551,20.122,49.89,19.925z"/>
		<path class="st0" d="M45.701,13.166C48.584,9.681,50.525,4.827,49.99,0c-4.15,0.165-9.17,2.764-12.146,6.247
			c-2.666,3.085-5.007,8.027-4.371,12.755C38.099,19.36,42.82,16.653,45.701,13.166z"/>
	</g>
</g>
</svg>
