<svg height="30" viewBox="0 0 60 30" width="60" xmlns="http://www.w3.org/2000/svg"><path d="m29.8885384 14.8928199c3.7088296 0 6.7318084-3.3037022 6.7318084-7.32421281 0-3.97378724-3.0076596-7.12164894-6.7318084-7.12164894-3.7089894 0-6.747766 3.19461702-6.732369 7.15279787.0157519 4.00496808 3.0233796 7.29306388 6.732369 7.29306388zm-17.9522873.3428298c3.2101915 0 5.8438085-2.8829362 5.8438085-6.42038304 0-3.45951064-2.6024361-6.24893616-5.8438085-6.24893616-3.21015957 0-5.85935107 2.83618084-5.8439798 6.28011701 0 3.52184039 2.63382023 6.38920219 5.8439798 6.38920219zm35.9044148 0c3.21 0 5.843822-2.8673618 5.843822-6.38920219.0154334-3.44393617-2.633822-6.28011701-5.843822-6.28011701-3.2415957 0-5.8439361 2.78942552-5.8439361 6.24893616 0 3.53744684 2.633617 6.42038304 5.8439361 6.42038304zm-17.9521275-2.6959149c-2.2753405 0-4.223266-2.1817022-4.223266-4.93997878-.0155745-2.71148936 1.9012021-4.79968084 4.223266-4.79968084 2.3218084 0 4.2229786 2.05701063 4.2229786 4.76853191 0 2.75827661-1.9324468 4.97112771-4.2229786 4.97112771zm-17.9522873.3739787c-1.9167447 0-3.52184043-1.823266-3.52184043-4.06726599 0-2.19727659 1.58952133-3.95818085 3.52184043-3.95818085 1.9635319 0 3.5374468 1.72975532 3.5374468 3.927 0 2.27518084-1.6206702 4.09844684-3.5374468 4.09844684zm35.9044148 0c-1.9168085 0-3.5374468-1.823266-3.5374468-4.09844684 0-2.19724468 1.5737234-3.927 3.5374468-3.927 1.9321277 0 3.5218085 1.76090426 3.5218085 3.95818085 0 2.24399999-1.6206383 4.06726599-3.5218085 4.06726599zm-44.58437226 16.6119575h12.23301066c-.7480213-.4207469-1.3090213-1.3557543-1.1999362-2.3063458h-11.40708509c-.32725532 0-.46748936-.124666-.46748936-.4207532 0-3.8646925 4.41009574-7.48005 9.50588295-7.48005 1.9479256 0 3.7244362.4674894 5.2360532 1.3557447.4830639-.6233298 1.0596703-1.1687553 1.7609043-1.6518192-2.0102553-1.3245957-4.4256702-2.0102872-6.9969575-2.0102872-6.52946806 0-11.82781913 4.737383-11.82781913 9.9266649 0 1.7297617 1.05967022 2.5868458 3.16343617 2.5868458zm53.26426596 0c2.1038298 0 3.1634042-.8570841 3.1634042-2.5868458 0-5.1892819-5.2985106-9.9266649-11.8279787-9.9266649-2.5710639 0-4.9867022.6856915-6.9967022 2.0102872.7011703.4830639 1.2775532 1.0284894 1.7607447 1.6518192 1.5114894-.8882553 3.2725532-1.3557447 5.2359575-1.3557447 5.0958511 0 9.5061702 3.6153575 9.5061702 7.48005 0 .2960872-.1404255.4207532-.4675532.4207532h-11.4070213c.1088298.9505915-.4675532 1.8855989-1.2 2.3063458zm-36.4341383 0h19.5728616c2.6023405 0 3.8336171-.7791671 3.8336171-2.4933447 0-4.0828628-5.1584043-9.9889852-13.6199999-9.9889852-8.4463086 0-13.6044256 5.9061224-13.6044256 9.9889852 0 1.7141776 1.2310851 2.4933447 3.8179468 2.4933447zm-.7480212-2.3530947c-.4051596 0-.561-.1090851-.561-.4363373 0-2.555684 3.9581808-7.3398127 11.0955-7.3398127 7.1527658 0 11.1108509 4.7841287 11.1108509 7.3398127 0 .3272522-.171383.4363373-.576383.4363373z" fill="#fff"/></svg>